#Comment line ignore any data following # character 
#Hierarchical Translation and Rotation (.htr) file 
[Header]	
#Header keywords are followed by a single value 
FileType HTR		#Single word string
DataType HTRS		#Translation followed by rotation and scale data
FileVersion 1		#integer
NumSegments 64		#integer
NumFrames 2		#integer
DataFrameRate 30		#integer, data frame rate in this file
EulerRotationOrder ZYX
CalibrationUnits mm
RotationUnits Degrees
GlobalAxisofGravity Y
BoneLengthAxis Y
ScaleFactor 1.00
[SegmentNames&Hierarchy]
#CHILD	PARENT
Pinger_Root GLOBAL
Pelvis Pinger_Root
L_Hip Pelvis
R_Hip Pelvis
Rear_Leg01 Pelvis
Spine1 Pelvis
L_Leg01 L_Hip
L_Leg02 L_Leg01
L_Leg03 L_Leg02
L_Foot L_Leg03
L_Toe1_01 L_Foot
L_Toe2_01 L_Foot
L_Toe3_01 L_Foot
planeAlignerLeft L_Foot
L_Toe1_02 L_Toe1_01
L_Toe1_03 L_Toe1_02
L_Toe2_02 L_Toe2_01
L_Toe2_03 L_Toe2_02
L_Toe3_02 L_Toe3_01
L_Toe3_03 L_Toe3_02
planeLockWeightLeft planeAlignerLeft
R_Leg01 R_Hip
R_Leg02 R_Leg01
R_Leg03 R_Leg02
R_Foot R_Leg03
planeAlignerRight R_Foot
R_Toe1_01 R_Foot
R_Toe2_01 R_Foot
R_Toe3_01 R_Foot
planeLockWeightRight planeAlignerRight
R_Toe1_02 R_Toe1_01
R_Toe1_03 R_Toe1_02
R_Toe2_02 R_Toe2_01
R_Toe2_03 R_Toe2_02
R_Toe3_02 R_Toe3_01
R_Toe3_03 R_Toe3_02
Rear_Leg02 Rear_Leg01
Rear_Leg03 Rear_Leg02
Rear_Leg04 Rear_Leg03
Rear_Foot Rear_Leg04
planeAlignerCenter Rear_Foot
Rear_Toe1_01 Rear_Foot
Rear_Toe2_01 Rear_Foot
Rear_Toe3_01 Rear_Foot
planeLockWeightCenter planeAlignerCenter
Rear_Toe1_02 Rear_Toe1_01
Rear_Toe1_03 Rear_Toe1_02
Rear_Toe2_02 Rear_Toe2_01
Rear_Toe2_03 Rear_Toe2_02
Rear_Toe3_02 Rear_Toe3_01
Rear_Toe3_03 Rear_Toe3_02
Back_Bone Spine1
Head Spine1
Motor_Bone Back_Bone
Ping_Mechanism Back_Bone
BN_LookIK Head
bottomMouth Head
L_Mouth01 Head
L_mouthFront Head
mouthGun Head
R_Mouth01 Head
R_mouthFront Head
TopMouth Head
weapon_bone Head
[BasePosition]
#SegmentName Tx, Ty, Tz, Rx, Ry, Rz, BoneLength
Pinger_Root 0.000000 0.000000 0.000000 -90.000000 0.000000 0.000000 10.000000 
Pelvis 0.000000 0.000000 0.000000 0.000000 0.000000 0.000000 10.000000 
L_Hip 0.000000 0.000000 0.000000 0.000000 0.000000 0.000000 10.000000 
R_Hip 0.000000 0.000000 0.000000 0.000000 0.000000 0.000000 10.000000 
Rear_Leg01 0.000000 0.000000 0.000000 0.000000 0.000000 0.000000 10.000000 
Spine1 0.000000 0.000000 0.000000 0.000000 0.000000 0.000000 10.000000 
L_Leg01 0.000000 0.000000 0.000000 0.000000 0.000000 0.000000 10.000000 
L_Leg02 0.000000 0.000000 0.000000 0.000000 0.000000 0.000000 10.000000 
L_Leg03 0.000000 0.000000 0.000000 0.000000 0.000000 0.000000 10.000000 
L_Foot 0.000000 0.000000 0.000000 0.000000 0.000000 0.000000 10.000000 
L_Toe1_01 0.000000 0.000000 0.000000 0.000000 0.000000 0.000000 10.000000 
L_Toe2_01 0.000000 0.000000 0.000000 0.000000 0.000000 0.000000 10.000000 
L_Toe3_01 0.000000 0.000000 0.000000 0.000000 0.000000 0.000000 10.000000 
planeAlignerLeft 0.000000 0.000000 0.000000 0.000000 0.000000 0.000000 10.000000 
L_Toe1_02 0.000000 0.000000 0.000000 0.000000 0.000000 0.000000 10.000000 
L_Toe1_03 0.000000 0.000000 0.000000 0.000000 0.000000 0.000000 10.000000 
L_Toe2_02 0.000000 0.000000 0.000000 0.000000 0.000000 0.000000 10.000000 
L_Toe2_03 0.000000 0.000000 0.000000 0.000000 0.000000 0.000000 10.000000 
L_Toe3_02 0.000000 0.000000 0.000000 0.000000 0.000000 0.000000 10.000000 
L_Toe3_03 0.000000 0.000000 0.000000 0.000000 0.000000 0.000000 10.000000 
planeLockWeightLeft 0.000000 0.000000 0.000000 0.000000 0.000000 0.000000 10.000000 
R_Leg01 0.000000 0.000000 0.000000 0.000000 0.000000 0.000000 10.000000 
R_Leg02 0.000000 0.000000 0.000000 0.000000 0.000000 0.000000 10.000000 
R_Leg03 0.000000 0.000000 0.000000 0.000000 0.000000 0.000000 10.000000 
R_Foot 0.000000 0.000000 0.000000 0.000000 0.000000 0.000000 10.000000 
planeAlignerRight 0.000000 0.000000 0.000000 0.000000 0.000000 0.000000 10.000000 
R_Toe1_01 0.000000 0.000000 0.000000 0.000000 0.000000 0.000000 10.000000 
R_Toe2_01 0.000000 0.000000 0.000000 0.000000 0.000000 0.000000 10.000000 
R_Toe3_01 0.000000 0.000000 0.000000 0.000000 0.000000 0.000000 10.000000 
planeLockWeightRight 0.000000 0.000000 0.000000 0.000000 0.000000 0.000000 10.000000 
R_Toe1_02 0.000000 0.000000 0.000000 0.000000 0.000000 0.000000 10.000000 
R_Toe1_03 0.000000 0.000000 0.000000 0.000000 0.000000 0.000000 10.000000 
R_Toe2_02 0.000000 0.000000 0.000000 0.000000 0.000000 0.000000 10.000000 
R_Toe2_03 0.000000 0.000000 0.000000 0.000000 0.000000 0.000000 10.000000 
R_Toe3_02 0.000000 0.000000 0.000000 0.000000 0.000000 0.000000 10.000000 
R_Toe3_03 0.000000 0.000000 0.000000 0.000000 0.000000 0.000000 10.000000 
Rear_Leg02 0.000000 0.000000 0.000000 0.000000 0.000000 0.000000 10.000000 
Rear_Leg03 0.000000 0.000000 0.000000 0.000000 0.000000 0.000000 10.000000 
Rear_Leg04 0.000000 0.000000 0.000000 0.000000 0.000000 0.000000 10.000000 
Rear_Foot 0.000000 0.000000 0.000000 0.000000 0.000000 0.000000 10.000000 
planeAlignerCenter 0.000000 0.000000 0.000000 0.000000 0.000000 0.000000 10.000000 
Rear_Toe1_01 0.000000 0.000000 0.000000 0.000000 0.000000 0.000000 10.000000 
Rear_Toe2_01 0.000000 0.000000 0.000000 0.000000 0.000000 0.000000 10.000000 
Rear_Toe3_01 0.000000 0.000000 0.000000 0.000000 0.000000 0.000000 10.000000 
planeLockWeightCenter 0.000000 0.000000 0.000000 0.000000 0.000000 0.000000 10.000000 
Rear_Toe1_02 0.000000 0.000000 0.000000 0.000000 0.000000 0.000000 10.000000 
Rear_Toe1_03 0.000000 0.000000 0.000000 0.000000 0.000000 0.000000 10.000000 
Rear_Toe2_02 0.000000 0.000000 0.000000 0.000000 0.000000 0.000000 10.000000 
Rear_Toe2_03 0.000000 0.000000 0.000000 0.000000 0.000000 0.000000 10.000000 
Rear_Toe3_02 0.000000 0.000000 0.000000 0.000000 0.000000 0.000000 10.000000 
Rear_Toe3_03 0.000000 0.000000 0.000000 0.000000 0.000000 0.000000 10.000000 
Back_Bone 0.000000 0.000000 0.000000 0.000000 0.000000 0.000000 10.000000 
Head 0.000000 0.000000 0.000000 0.000000 0.000000 0.000000 10.000000 
Motor_Bone 0.000000 0.000000 0.000000 0.000000 0.000000 0.000000 10.000000 
Ping_Mechanism 0.000000 0.000000 0.000000 0.000000 0.000000 0.000000 10.000000 
BN_LookIK 0.000000 0.000000 0.000000 0.000000 0.000000 0.000000 10.000000 
bottomMouth 0.000000 0.000000 0.000000 0.000000 0.000000 0.000000 10.000000 
L_Mouth01 0.000000 0.000000 0.000000 0.000000 0.000000 0.000000 10.000000 
L_mouthFront 0.000000 0.000000 0.000000 0.000000 0.000000 0.000000 10.000000 
mouthGun 0.000000 0.000000 0.000000 0.000000 0.000000 0.000000 10.000000 
R_Mouth01 0.000000 0.000000 0.000000 0.000000 0.000000 0.000000 10.000000 
R_mouthFront 0.000000 0.000000 0.000000 0.000000 0.000000 0.000000 10.000000 
TopMouth 0.000000 0.000000 0.000000 0.000000 0.000000 0.000000 10.000000 
weapon_bone 0.000000 0.000000 0.000000 0.000000 0.000000 0.000000 10.000000 
#Beginning of Data. Separated by tabs
#Fr	Tx	Ty	Tz	Rx	Ry	Rz	SF
[Pinger_Root]
6 0.000000 0.000000 0.000000 -0.000075 -0.000000 -0.000020 0.000000
7 0.000000 0.000000 0.000000 -0.000075 -0.000000 -0.000020 0.000000
[Pelvis]
6 -116.262726 2057.925049 4100.305664 -106.360359 -65.222801 97.189262 4589.234863
7 -135.012802 2136.906006 3995.313721 -106.110634 -61.968956 95.036186 4532.893555
[L_Hip]
6 5.766392 125.831482 872.656799 147.444839 -65.970116 134.650528 881.701050
7 5.766392 125.831482 872.656799 131.023956 -76.662903 152.593155 881.701050
[R_Hip]
6 5.765438 125.836372 -872.654907 36.642590 52.738213 122.999199 881.699829
7 5.765438 125.836372 -872.654907 31.718227 57.783245 116.044930 881.699829
[Rear_Leg01]
6 -192.298416 -925.602966 -0.001907 167.889465 3.425293 -157.571045 945.367432
7 -192.298416 -925.602966 -0.001907 166.715683 4.690583 -160.321091 945.367432
[Spine1]
6 290.604584 5.007505 0.000477 5.661930 -1.218143 9.967173 290.647736
7 290.604584 5.007505 0.000477 6.111317 -2.076405 9.487120 290.647736
[L_Leg01]
6 761.932007 -0.002384 -0.069261 35.487503 -35.358227 -11.970520 761.932068
7 761.932007 -0.002384 -0.069261 37.601093 -49.162319 -12.971177 761.932068
[L_Leg02]
6 1441.140503 -0.000954 -0.000715 7.983785 3.428689 -144.363571 1441.140503
7 1441.140503 -0.000954 -0.000715 8.266622 3.841568 -146.340149 1441.140503
[L_Leg03]
6 1686.963989 -0.000715 -0.000954 -0.122566 0.077865 143.800079 1686.963989
7 1686.963989 -0.000715 -0.000954 -0.127891 0.082460 145.077744 1686.963989
[L_Foot]
6 3041.570068 -30.715107 11.297464 3.550156 25.054247 64.543411 3041.746094
7 3041.570068 -30.715107 11.297464 4.106974 29.762699 65.279076 3041.746094
[L_Toe1_01]
6 -188.216690 -224.732346 -21.137953 94.109596 -1.739438 -179.410309 293.899567
7 -188.216690 -224.732346 -21.137953 94.115715 -1.626564 -179.630325 293.899567
[L_Toe2_01]
6 200.746536 -219.926590 148.838394 -97.854454 -27.107225 -34.760529 332.896027
7 200.746536 -219.926590 148.838394 -98.201736 -27.889849 -34.219936 332.896027
[L_Toe3_01]
6 188.832520 -219.859131 -191.078659 -99.909813 28.382807 -63.424679 347.140900
7 188.832520 -219.859131 -191.078659 -99.864105 29.449530 -64.657974 347.140900
[planeAlignerLeft]
6 0.812531 -811.448792 -0.314951 0.000000 -90.000000 -90.001900 811.449280
7 0.812531 -811.448792 -0.314951 0.000000 -90.000000 -90.001900 811.449280
[L_Toe1_02]
6 413.761139 0.000477 0.000000 0.001661 0.070897 0.001661 413.761139
7 413.761139 0.000477 0.000000 0.001661 0.070897 0.001661 413.761139
[L_Toe1_03]
6 464.317322 0.000358 -0.000089 0.001673 -0.448396 -0.003292 464.317322
7 464.317322 0.000358 -0.000089 0.001673 -0.448396 -0.003292 464.317322
[L_Toe2_02]
6 342.235809 -0.000477 0.000238 0.004684 -81.247002 0.004684 342.235809
7 342.235809 -0.000477 0.000238 0.004684 -81.244133 0.004684 342.235809
[L_Toe2_03]
6 420.210846 -0.000715 0.000000 179.993088 46.150978 -179.999374 420.210846
7 420.210846 -0.000715 0.000000 179.993271 42.301830 -179.999084 420.210846
[L_Toe3_02]
6 329.270111 0.000954 0.000000 0.004675 -84.673325 0.004675 329.270111
7 329.270111 0.000954 0.000000 0.004675 -84.676384 0.004675 329.270111
[L_Toe3_03]
6 439.137451 -0.001907 0.000954 179.992950 48.581242 -179.999588 439.137451
7 439.137451 -0.001907 0.000954 179.993088 46.274662 -179.999390 439.137451
[planeLockWeightLeft]
6 -0.000954 0.000238 -0.000305 -0.011826 -0.004376 0.005620 0.001029
7 -0.000954 0.000238 -0.000305 -0.011826 -0.004376 0.005620 0.001029
[R_Leg01]
6 761.455627 -0.001907 -0.000358 140.847549 -10.188057 32.926483 761.455688
7 761.455627 -0.001907 -0.000358 137.988403 -13.724207 39.508141 761.455688
[R_Leg02]
6 1441.140625 0.000000 -0.000238 -1.816183 -0.473920 -125.085121 1441.140625
7 1441.140625 0.000000 -0.000238 -1.902941 -0.546647 -124.345634 1441.140625
[R_Leg03]
6 1686.963989 0.000954 0.001431 0.095376 -0.054200 136.403564 1686.963989
7 1686.963989 0.000954 0.001431 0.098826 -0.059021 137.729889 1686.963989
[R_Foot]
6 3041.560059 -30.531288 -11.204481 5.871401 -9.574029 67.052040 3041.734131
7 3041.560059 -30.531288 -11.204481 5.826431 -10.577492 66.828629 3041.734131
[planeAlignerRight]
6 -0.635147 -812.270569 -0.364304 0.000000 -89.960434 -90.005180 812.270874
7 -0.635147 -812.270569 -0.364304 0.000000 -89.960434 -90.005180 812.270874
[R_Toe1_01]
6 -188.383347 -224.864899 21.052242 77.370155 -4.119519 -176.243393 294.101532
7 -188.383347 -224.864899 21.052242 77.384338 -4.233366 -176.410858 294.101532
[R_Toe2_01]
6 200.637817 -220.002121 -148.787384 -85.250664 32.411278 -47.393909 332.857574
7 200.637817 -220.002121 -148.787384 -84.969666 32.377937 -46.874470 332.857574
[R_Toe3_01]
6 188.606735 -220.092957 191.126343 -71.370079 -16.554224 -68.211449 347.192566
7 188.606735 -220.092957 191.126343 -71.323143 -16.839350 -67.948456 347.192566
[planeLockWeightRight]
6 -0.000477 0.000000 0.000000 -0.011823 -0.004379 -0.000027 0.000477
7 -0.000477 0.000000 0.000000 -0.011823 -0.004379 -0.000027 0.000477
[R_Toe1_02]
6 413.762085 0.000477 -0.000119 0.001386 -25.678038 0.001386 413.762085
7 413.762085 0.000477 -0.000119 0.001386 -25.685638 0.001386 413.762085
[R_Toe1_03]
6 464.317810 0.000000 0.001088 0.004802 61.705399 0.004802 464.317810
7 464.317810 0.000000 0.001088 0.004772 61.526886 0.004772 464.317810
[R_Toe2_02]
6 342.234741 -0.000954 0.000238 -0.002337 -77.386192 -0.002337 342.234741
7 342.234741 -0.000954 0.000238 -0.002337 -77.645988 -0.002337 342.234741
[R_Toe2_03]
6 420.210846 0.000715 -0.000268 -179.992920 77.618500 -179.996429 420.210846
7 420.210846 0.000715 -0.000268 -179.993225 76.869148 -179.996735 420.210846
[R_Toe3_02]
6 329.270355 -0.000477 -0.000954 0.001178 -80.460899 0.001178 329.270355
7 329.270355 -0.000477 -0.000954 0.001178 -80.510651 0.001178 329.270355
[R_Toe3_03]
6 439.137939 0.000238 0.001431 -179.995972 78.592911 -179.992462 439.137939
7 439.137939 0.000238 0.001431 -179.996216 78.069855 -179.992706 439.137939
[Rear_Leg02]
6 1162.777710 -0.029802 0.005960 9.360309 6.493886 -38.718018 1162.777710
7 1162.777710 -0.029802 0.005960 12.887177 7.610462 -34.402897 1162.777710
[Rear_Leg03]
6 607.192505 -0.013351 -0.073195 0.003446 0.005874 32.580872 607.192505
7 607.192505 -0.013351 -0.073195 -0.001463 0.007230 30.007662 607.192505
[Rear_Leg04]
6 995.874512 -0.020504 -0.011921 -0.023704 -0.006156 10.158562 995.874573
7 995.874512 -0.020504 -0.011921 -0.023549 -0.006725 7.400608 995.874573
[Rear_Foot]
6 3096.176270 -0.067472 -0.041425 49.666054 78.459686 -98.727943 3096.176270
7 3096.176270 -0.067472 -0.041425 47.376663 74.508240 -98.864899 3096.176270
[planeAlignerCenter]
6 0.350077 0.966311 -838.790894 0.000009 0.000003 -179.999985 838.791565
7 0.350077 0.966311 -838.790894 0.000009 0.000003 -179.999985 838.791565
[Rear_Toe1_01]
6 0.653352 83.966492 -371.173737 0.512772 23.800798 90.901054 380.553192
7 0.653352 83.966492 -371.173737 0.489649 24.370270 90.848053 380.553192
[Rear_Toe2_01]
6 178.200760 -294.826019 -362.060547 -8.555995 21.571411 -69.190285 499.765686
7 178.200760 -294.826019 -362.060547 -8.551814 22.138906 -68.996315 499.765686
[Rear_Toe3_01]
6 -153.359680 -308.780914 -362.060852 3.908668 19.919643 -110.799744 499.952881
7 -153.359680 -308.780914 -362.060852 3.913010 20.670191 -110.942596 499.952881
[planeLockWeightCenter]
6 -0.000062 0.000238 0.000000 -0.011814 -0.004373 -0.000015 0.000246
7 -0.000062 0.000238 0.000000 -0.011814 -0.004373 -0.000015 0.000246
[Rear_Toe1_02]
6 379.707825 0.194073 0.000477 -0.003984 -32.229118 -0.003984 379.707855
7 379.707825 0.194073 0.000477 -0.002650 -32.515579 -0.002650 379.707855
[Rear_Toe1_03]
6 500.129700 0.165701 0.000119 -179.982742 85.752777 -179.986237 500.129761
7 500.129700 0.165701 0.000119 -179.970215 87.650398 -179.973709 500.129761
[Rear_Toe2_02]
6 340.494507 0.000238 -0.000954 0.001215 -59.958107 0.001215 340.494507
7 340.494507 0.000238 -0.000954 0.001211 -61.569073 0.001211 340.494507
[Rear_Toe2_03]
6 433.103577 0.000000 0.000238 0.004020 56.054218 0.004020 433.103546
7 433.103577 0.000000 0.000238 0.004277 58.148746 0.004277 433.103546
[Rear_Toe3_02]
6 340.494141 -0.000358 -0.000477 -0.002441 -54.220470 -0.002441 340.494171
7 340.494141 -0.000358 -0.000477 -0.002428 -56.212994 -0.002428 340.494171
[Rear_Toe3_03]
6 433.103577 0.001431 -0.000238 0.000221 49.108139 -0.003511 433.103546
7 433.103577 0.001431 -0.000238 0.000111 51.451881 -0.003593 433.103546
[Back_Bone]
6 1312.175781 -701.934692 0.000954 6.762187 -0.351271 -66.721588 1488.125488
7 1312.175781 -701.934692 0.000954 6.809050 -1.579539 -65.762489 1488.125488
[Head]
6 1406.159424 809.709290 0.001431 1.034184 -1.247439 -3.037009 1622.625488
7 1406.159424 809.709290 0.001431 0.881375 -1.328961 1.181824 1622.625488
[Motor_Bone]
6 1158.364380 -417.834747 0.000477 -0.895875 22.779249 -74.291763 1231.419434
7 1158.364380 -417.834747 0.000477 -1.656183 27.452021 -79.715233 1231.419434
[Ping_Mechanism]
6 1301.916504 -521.979980 -11.703795 0.000103 -0.000053 82.120995 1402.706787
7 1308.879395 -537.491760 -11.979897 0.000103 -0.000053 82.120995 1414.993286
[BN_LookIK]
6 193.241119 1380.371704 -0.002861 0.000000 89.965736 -31.038179 1393.832153
7 193.241119 1380.371704 -0.002861 0.000000 89.965736 -31.038179 1393.832153
[bottomMouth]
6 -435.092926 615.759399 -0.000954 -0.000022 0.000016 73.527184 753.966492
7 -435.092926 615.759399 -0.000954 -0.000022 0.000016 73.527184 753.966492
[L_Mouth01]
6 554.440979 7.658243 838.222046 150.204178 23.759130 109.605339 1005.027161
7 554.440979 7.658243 838.222046 150.204178 23.759130 109.605339 1005.027161
[L_mouthFront]
6 551.629089 934.514771 339.150421 0.000081 2.804060 79.119301 1136.941284
7 551.629089 934.514771 339.150421 0.000081 2.804060 79.119301 1136.941284
[mouthGun]
6 55.332661 1627.420898 0.000000 0.000023 0.000009 -11.038128 1628.361328
7 55.332661 1627.420898 0.000000 0.000023 0.000009 -11.038128 1628.361328
[R_Mouth01]
6 554.442383 7.659197 -838.223938 29.795891 -23.759109 109.605331 1005.029541
7 554.442383 7.659197 -838.223938 29.795891 -23.759109 109.605331 1005.029541
[R_mouthFront]
6 551.629089 934.514282 -339.151367 0.000029 -2.803930 79.119133 1136.941162
7 551.629089 934.514282 -339.151367 0.000029 -2.803930 79.119133 1136.941162
[TopMouth]
6 461.269867 -56.106091 -0.008583 -0.000059 -0.000268 92.025169 464.669525
7 461.269867 -56.106091 -0.008583 -0.000059 -0.000268 92.025169 464.669525
[weapon_bone]
6 -987.239868 1448.372803 0.001431 0.000000 89.965736 -31.038221 1752.833740
7 -987.239868 1448.372803 0.001431 0.000000 89.965736 -31.038221 1752.833740
